<svg width="24" height="24" viewBox="0 0 24 24" fill="none" xmlns="http://www.w3.org/2000/svg">
  <!-- Wayang (shadow puppet) inspired user icon -->
  <defs>
    <linearGradient id="wayangGradient" x1="0%" y1="0%" x2="0%" y2="100%">
      <stop offset="0%" style="stop-color:#D4AF37"/>
      <stop offset="100%" style="stop-color:#6B4423"/>
    </linearGradient>
  </defs>

  <!-- Head (stylized wayang face) -->
  <path d="M 12 3 C 12 3, 9 3, 8 6 C 7 9, 7 10, 8 11 L 16 11 C 17 10, 17 9, 16 6 C 15 3, 12 3, 12 3 Z"
        fill="url(#wayangGradient)" stroke="#6B4423" stroke-width="0.5"/>

  <!-- Crown/headdress (wayang style) -->
  <path d="M 8 6 L 7 4 L 8 3 M 12 5 L 12 2 M 16 6 L 17 4 L 16 3"
        stroke="#D4AF37" stroke-width="1" stroke-linecap="round"/>
  <circle cx="12" cy="2" r="1" fill="#DC1F26"/>

  <!-- Eyes (stylized) -->
  <circle cx="10" cy="8" r="0.8" fill="#1A0F0F"/>
  <circle cx="14" cy="8" r="0.8" fill="#1A0F0F"/>

  <!-- Body (wayang torso shape) -->
  <path d="M 8 11 L 7 15 L 8 19 L 12 20 L 16 19 L 17 15 L 16 11 Z"
        fill="url(#wayangGradient)" stroke="#6B4423" stroke-width="0.5"/>

  <!-- Arms (extended wayang style) -->
  <path d="M 8 13 L 5 14 L 4 16"
        stroke="url(#wayangGradient)" stroke-width="1.5" stroke-linecap="round"/>
  <path d="M 16 13 L 19 14 L 20 16"
        stroke="url(#wayangGradient)" stroke-width="1.5" stroke-linecap="round"/>

  <!-- Decorative details -->
  <circle cx="12" cy="15" r="1" fill="#D4AF37"/>
  <path d="M 10 13 L 14 13" stroke="#D4AF37" stroke-width="0.5"/>
</svg>
